#!OML:ASF H:\GeneralSubjects\Female5\Project 1\Capture day 1\Session 1\Female5.ASF
:FULLY-SPECIFIED
:DEGREES
209
root 6.2496 15.5929 3.05063 158.428 -85.0849 -148.1
lowerback 7.25133 0.820992 0.842282
upperback -8.46031 1.35366 3.04277
thorax -13.3856 0.658962 2.64497
lowerneck -10.314 1.45239 -1.05511
upperneck 50.0971 -1.68278 -0.562706
head 22.9687 -2.18054 -0.997989
rclavicle 2.78299e-015 -2.94201e-014
rhumerus -45.2122 21.3503 -84.7003
rradius 23.7794
rwrist -8.36821
rhand -18.0738 -28.6004
rfingers 7.12502
rthumb 8.1991 -58.4213
lclavicle 2.78299e-015 -2.94201e-014
lhumerus -41.9709 -12.1852 95.8596
lradius 30.2931
lwrist -4.69612
lhand -25.4539 33.5382
lfingers 7.12502
lthumb 1.07321 63.5153
rfemur -23.5315 19.0143 20.9603
rtibia 2.6857
rfoot -21.9786 -31.5833
rtoes 14.3158
lfemur 13.5602 -29.6464 -33.8555
ltibia 0.232665
lfoot -36.9217 25.9227
ltoes -63.8261
210
root 6.09225 15.6103 2.95418 150.738 -84.7349 -140.358
lowerback 7.22915 0.823137 1.40601
upperback -8.6804 1.4652 3.49228
thorax -13.6408 0.676209 2.81363
lowerneck -9.24976 1.31704 -1.04761
upperneck 49.5549 -1.89417 -0.489131
head 22.0352 -2.25032 -0.947102
rclavicle 5.96354e-016 -3.02153e-014
rhumerus -45.497 19.2751 -82.6676
rradius 22.8457
rwrist -7.27414
rhand -17.3251 -29.2914
rfingers 7.12502
rthumb 8.92161 -59.0828
lclavicle 5.96354e-016 -3.02153e-014
lhumerus -43.1738 -9.43907 94.5412
lradius 29.9099
lwrist -5.78916
lhand -28.3735 32.5879
lfingers 7.12502
lthumb -1.74662 62.5605
rfemur -23.4794 17.1778 23.0101
rtibia 4.203
rfoot -20.5622 -29.6256
rtoes 12.043
lfemur 13.4144 -28.7041 -32.3583
ltibia 1.08661
lfoot -36.9437 24.5962
ltoes -63.7175
211
root 5.94319 15.6283 2.85745 145.008 -84.4597 -134.609
lowerback 7.43893 0.768381 1.97377
upperback -8.69016 1.50634 3.83488
thorax -13.787 0.656763 2.8699
lowerneck -8.60815 1.17979 -1.1519
upperneck 49.0038 -2.08011 -0.324232
head 21.2462 -2.30497 -0.834283
rclavicle -6.31141e-015 -7.95139e-015
rhumerus -45.2616 17.1872 -80.5444
rradius 22.3027
rwrist -6.38968
rhand -17.1706 -30.1258
rfingers 7.12502
rthumb 9.07071 -59.9107
lclavicle -6.31141e-015 -7.95139e-015
lhumerus -43.8736 -7.40102 93.3431
lradius 29.4362
lwrist -5.45445
lhand -28.2094 32.9514
lfingers 7.12502
lthumb -1.58818 62.9252
rfemur -23.015 16.2205 24.5529
rtibia 4.82859
rfoot -20.2234 -28.2893
rtoes 11.294
lfemur 12.9139 -27.2601 -30.7593
ltibia 2.23189
lfoot -35.7949 23.6995
ltoes -64.1732
212
root 5.79707 15.6454 2.76253 140.701 -84.3142 -130.301
lowerback 7.72687 0.692133 2.39371
upperback -8.68669 1.49831 4.08831
thorax -13.9662 0.62457 2.9206
lowerneck -8.64833 1.0364 -1.50743
upperneck 48.7178 -2.37278 0.147854
head 21.0523 -2.41054 -0.560867
rclavicle 1.68967e-015 -1.51076e-014
rhumerus -45.0963 15.4917 -78.7865
rradius 22.0551
rwrist -6.16953
rhand -17.3465 -30.4921
rfingers 7.12502
rthumb 8.90096 -60.2844
lclavicle 1.68967e-015 -1.51076e-014
lhumerus -44.4421 -6.12967 92.4673
lradius 28.8063
lwrist -3.9425
lhand -22.1002 37.0581
lfingers 7.12502
lthumb 4.31204 66.9942
rfemur -22.1546 15.9341 25.6544
rtibia 4.66551
rfoot -20.6871 -27.4162
rtoes 12.5949
lfemur 12.2983 -25.5535 -29.3068
ltibia 3.55907
lfoot -34.4586 22.3753
ltoes -64.4169
213
root 5.65331 15.6626 2.6651 137.113 -84.3365 -126.74
lowerback 8.00402 0.62294 2.61109
upperback -8.59494 1.46693 4.25199
thorax -14.0338 0.599159 2.98629
lowerneck -8.91464 0.867275 -1.31186
upperneck 48.4706 -2.62895 0.14741
head 20.9441 -2.44849 -0.634894
rclavicle -3.13086e-015 -1.43125e-014
rhumerus -44.9534 14.0838 -77.3189
rradius 21.819
rwrist -5.98895
rhand -17.5613 -29.1957
rfingers 7.12502
rthumb 8.69372 -58.9967
lclavicle -3.13086e-015 -1.43125e-014
lhumerus -44.5349 -4.91447 91.3672
lradius 27.9692
lwrist -3.81914
lhand -22.3274 35.7393
lfingers 7.12502
lthumb 4.09267 65.6797
rfemur -21.1058 15.9978 26.4447
rtibia 4.20081
rfoot -21.4364 -27.0674
rtoes 13.8918
lfemur 11.383 -23.4699 -27.8255
ltibia 5.25611
lfoot -32.8377 20.9722
ltoes -64.8979
214
root 5.51211 15.6825 2.5666 133.391 -84.479 -123.016
lowerback 8.25496 0.557489 2.80276
upperback -8.43084 1.42573 4.28662
thorax -13.9928 0.566152 2.92028
lowerneck -9.38924 0.642505 -1.62309
upperneck 48.3479 -3.19776 0.880836
head 21.0419 -2.61019 -0.302066
rclavicle -4.96962e-017 -4.6118e-014
rhumerus -44.8218 12.9364 -76.2804
rradius 22.215
rwrist -6.89427
rhand -17.0271 -29.5838
rfingers 7.12502
rthumb 9.20917 -59.3627
lclavicle -4.96962e-017 -4.6118e-014
lhumerus -44.0994 -3.94291 90.0476
lradius 26.8308
lwrist -5.37366
lhand -22.0631 35.7692
lfingers 7.12502
lthumb 4.34782 65.7046
rfemur -20.1309 15.8472 27.1161
rtibia 3.76702
rfoot -21.8744 -26.8215
rtoes 14.138
lfemur 10.0781 -21.203 -26.269
ltibia 7.44842
lfoot -30.9537 19.4523
ltoes -65.5036
215
root 5.3735 15.7048 2.46849 129.672 -84.6444 -119.194
lowerback 8.44332 0.49933 3.02506
upperback -8.31458 1.39188 4.28431
thorax -13.9677 0.530415 2.79597
lowerneck -9.82136 0.447994 -1.63239
upperneck 48.3074 -3.61806 1.16919
head 21.1727 -2.71728 -0.233056
rclavicle 9.83984e-015 -4.37326e-014
rhumerus -44.7872 12.3187 -75.6904
rradius 22.6042
rwrist -7.97392
rhand -17.4326 -29.6836
rfingers 7.12502
rthumb 8.81787 -59.4794
lclavicle 9.83984e-015 -4.37326e-014
lhumerus -43.5213 -3.59389 89.1024
lradius 25.5227
lwrist -6.9229
lhand -21.8026 35.681
lfingers 7.12502
lthumb 4.59943 65.6111
rfemur -19.3783 15.3832 27.7401
rtibia 3.43614
rfoot -22.0055 -26.4671
rtoes 13.942
lfemur 8.42843 -18.7274 -24.6392
ltibia 10.06
lfoot -28.9891 17.233
ltoes -65.622
216
root 5.23813 15.7288 2.36752 125.88 -84.7454 -115.268
lowerback 8.53464 0.482147 3.14548
upperback -8.33968 1.39776 4.33334
thorax -14.0556 0.523533 2.78428
lowerneck -9.62261 0.281919 -1.52194
upperneck 48.3132 -3.98958 1.22709
head 21.1267 -2.83619 -0.291342
rclavicle 3.13086e-015 -1.35174e-014
rhumerus -45.0856 11.997 -75.2878
rradius 23.1887
rwrist -8.94011
rhand -17.7301 -29.8796
rfingers 7.12502
rthumb 8.53077 -59.6872
lclavicle 3.13086e-015 -1.35174e-014
lhumerus -43.0701 -3.45123 88.4945
lradius 24.0215
lwrist -8.45107
lhand -21.8114 35.2447
lfingers 7.12502
lthumb 4.59086 65.175
rfemur -18.6944 15.007 28.3814
rtibia 3.12536
rfoot -22.2372 -26.0232
rtoes 14.5543
lfemur 6.60133 -16.1682 -22.9437
ltibia 13.0146
lfoot -26.7555 14.9335
ltoes -65.5386
217
root 5.10689 15.7526 2.26809 122.061 -84.7749 -111.32
lowerback 8.55171 0.476525 3.33337
upperback -8.34397 1.42343 4.38155
thorax -14.0708 0.518921 2.72803
lowerneck -9.2817 0.133629 -1.62727
upperneck 48.3269 -4.39318 1.51462
head 21.0621 -2.98575 -0.193798
rclavicle 2.5842e-015 2.8625e-014
rhumerus -45.3533 12.0265 -75.1457
rradius 23.7938
rwrist -9.73277
rhand -17.7628 -30.0811
rfingers 7.12502
rthumb 8.49924 -59.8901
lclavicle 2.5842e-015 2.8625e-014
lhumerus -42.4769 -3.29367 87.8735
lradius 22.6081
lwrist -10.6893
lhand -23.6129 32.6855
lfingers 7.12502
lthumb 2.8512 62.6462
rfemur -18.0327 14.5724 29.0859
rtibia 2.86518
rfoot -22.5059 -25.3572
rtoes 15.0796
lfemur 4.66289 -13.7089 -21.2804
ltibia 16.2885
lfoot -24.9958 12.0278
ltoes -65.0231
